<svg width="80" height="80" viewBox="0 0 80 80" fill="none" xmlns="http://www.w3.org/2000/svg">
<path d="M16.667 13.333H21.667L30.0003 53.333M30.0003 53.333C28.2322 53.333 26.5365 54.0354 25.2863 55.2856C24.036 56.5359 23.3337 58.2316 23.3337 59.9997C23.3337 61.7678 24.036 63.4635 25.2863 64.7137C26.5365 65.964 28.2322 66.6663 30.0003 66.6663C31.7684 66.6663 33.4641 65.964 34.7144 64.7137C35.9646 63.4635 36.667 61.7678 36.667 59.9997C36.667 58.2316 35.9646 56.5359 34.7144 55.2856C33.4641 54.0354 31.7684 53.333 30.0003 53.333H56.667M56.667 53.333C54.8989 53.333 53.2032 54.0354 51.9529 55.2856C50.7027 56.5359 50.0003 58.2316 50.0003 59.9997C50.0003 61.7678 50.7027 63.4635 51.9529 64.7137C53.2032 65.964 54.8989 66.6663 56.667 66.6663C58.4351 66.6663 60.1308 65.964 61.381 64.7137C62.6313 63.4635 63.3337 61.7678 63.3337 59.9997C63.3337 58.2316 62.6313 56.5359 61.381 55.2856C60.1308 54.0354 58.4351 53.333 56.667 53.333ZM28.3337 43.333H59.167L63.3337 23.333H24.3737" stroke="#072843" stroke-width="6" stroke-linecap="round" stroke-linejoin="round"/>
</svg>
