<svg width="80" height="80" viewBox="0 0 80 80" fill="none" xmlns="http://www.w3.org/2000/svg">
<path d="M40.4599 15.1265C41.5816 14.6783 42.8039 14.5433 43.9963 14.7359C45.1887 14.9285 46.3064 15.4414 47.2299 16.2198L47.6499 16.6031L63.3966 32.3498C64.2518 33.204 64.8586 34.2747 65.1522 35.4472C65.4457 36.6198 65.415 37.8501 65.0633 39.0065L64.8733 39.5398L56.9899 59.2498C56.5477 60.3532 55.8184 61.3182 54.8777 62.045C53.9371 62.7717 52.8192 63.2337 51.6399 63.3831L34.7099 65.4998C34.2744 65.5509 33.8188 65.6131 33.3433 65.6865L31.8633 65.9265L31.0899 66.0665L28.6799 66.5331L27.0299 66.8865L24.5466 67.4431L21.3633 68.2031L16.1899 69.5231L14.0366 70.1031C13.4932 70.2526 12.921 70.2632 12.3724 70.134C11.8238 70.0048 11.3164 69.74 10.8968 69.3638C10.4771 68.9876 10.1586 68.5121 9.97047 67.9808C9.78233 67.4496 9.73057 66.8796 9.81993 66.3231L9.93327 65.8365L10.9166 62.1298L11.7966 58.6365L12.5566 55.4531L13.1133 52.9698L13.4633 51.3165L13.9333 48.9098L14.1999 47.3865L14.4133 45.9598L16.6133 28.3598C16.7518 27.2736 17.1558 26.2383 17.7895 25.3453C18.4232 24.4524 19.2671 23.7292 20.2466 23.2398L20.7499 23.0098L40.4599 15.1265ZM42.9333 21.3165L23.2266 29.1998L21.2799 44.7731L21.1199 46.0931C20.7928 48.5453 20.3646 50.9829 19.8366 53.3998L19.2666 56.0198L30.2266 45.0598C29.8466 43.6422 29.9451 42.1389 30.5066 40.783C31.0681 39.427 32.0614 38.2943 33.3324 37.5604C34.6033 36.8266 36.0809 36.5326 37.536 36.7241C38.991 36.9157 40.3422 37.582 41.38 38.6197C42.4178 39.6575 43.0841 41.0087 43.2756 42.4638C43.4671 43.9188 43.1732 45.3964 42.4393 46.6674C41.7055 47.9383 40.5727 48.9316 39.2168 49.4932C37.8608 50.0547 36.3575 50.1531 34.9399 49.7731L23.9799 60.7331L25.2866 60.4431L27.8999 59.8931C29.5286 59.5606 31.1658 59.2716 32.8099 59.0265L50.7999 56.7731L58.6833 37.0665L42.9333 21.3165ZM50.8099 10.3365C51.3835 9.76207 52.1469 9.41668 52.957 9.36513C53.7671 9.31358 54.5682 9.5594 55.2099 10.0565L55.5233 10.3365L69.6633 24.4765C70.2674 25.075 70.62 25.8817 70.6489 26.7316C70.6777 27.5816 70.3806 28.4104 69.8184 29.0484C69.2561 29.6865 68.4713 30.0855 67.6245 30.1638C66.7777 30.2422 65.933 29.9939 65.2633 29.4698L64.9499 29.1898L50.8099 15.0498C50.185 14.4247 49.834 13.577 49.834 12.6931C49.834 11.8093 50.185 10.9616 50.8099 10.3365Z" fill="#072843"/>
</svg>
