<svg width="45" height="45" viewBox="0 0 45 45" fill="none" xmlns="http://www.w3.org/2000/svg">
<path d="M22.759 8.50919C23.3899 8.25712 24.0774 8.18118 24.7482 8.2895C25.4189 8.39782 26.0476 8.68633 26.5671 9.12419L26.8033 9.33982L35.6608 18.1973C36.1419 18.6778 36.4832 19.2801 36.6483 19.9396C36.8135 20.5992 36.7962 21.2912 36.5983 21.9417L36.4915 22.2417L32.0571 33.3286C31.8083 33.9492 31.3981 34.492 30.869 34.9008C30.3399 35.3096 29.711 35.5695 29.0477 35.6536L19.5246 36.8442C19.2796 36.8729 19.0233 36.9079 18.7558 36.9492L17.9233 37.0842L17.4883 37.1629L16.1327 37.4254L15.2046 37.6242L13.8077 37.9373L12.0171 38.3648L9.10708 39.1073L7.89583 39.4336C7.59016 39.5176 7.26828 39.5236 6.9597 39.4509C6.65112 39.3783 6.36573 39.2293 6.12967 39.0177C5.89362 38.8061 5.71446 38.5386 5.60864 38.2398C5.50281 37.9409 5.47369 37.6203 5.52396 37.3073L5.58771 37.0336L6.14083 34.9486L6.63583 32.9836L7.06333 31.1929L7.37646 29.7961L7.57333 28.8661L7.83771 27.5123L7.98771 26.6554L8.10771 25.8529L9.34521 15.9529C9.42316 15.342 9.65039 14.7596 10.0068 14.2573C10.3633 13.755 10.838 13.3482 11.389 13.0729L11.6721 12.9436L22.759 8.50919ZM24.1502 11.9911L13.0652 16.4254L11.9702 25.1854L11.8802 25.9279C11.6962 27.3073 11.4553 28.6784 11.1583 30.0379L10.8377 31.5117L17.0027 25.3467C16.789 24.5493 16.8443 23.7037 17.1602 22.941C17.4761 22.1783 18.0348 21.5411 18.7497 21.1283C19.4646 20.7155 20.2958 20.5501 21.1142 20.6579C21.9327 20.7656 22.6928 21.1404 23.2765 21.7242C23.8602 22.3079 24.235 23.0679 24.3428 23.8864C24.4505 24.7049 24.2852 25.536 23.8724 26.2509C23.4596 26.9659 22.8224 27.5246 22.0597 27.8404C21.297 28.1563 20.4513 28.2117 19.654 27.9979L13.489 34.1629L14.224 33.9998L15.694 33.6904C16.6101 33.5034 17.531 33.3408 18.4558 33.2029L28.5752 31.9354L33.0096 20.8504L24.1502 11.9911ZM28.5808 5.81482C28.9035 5.49171 29.3329 5.29743 29.7886 5.26844C30.2443 5.23944 30.6949 5.37771 31.0558 5.65732L31.2321 5.81482L39.1858 13.7686C39.5257 14.1052 39.724 14.559 39.7402 15.0371C39.7565 15.5152 39.5893 15.9814 39.2731 16.3403C38.9568 16.6992 38.5154 16.9236 38.039 16.9677C37.5627 17.0118 37.0876 16.8721 36.7108 16.5773L36.5346 16.4198L28.5808 8.46607C28.2293 8.11446 28.0319 7.63763 28.0319 7.14044C28.0319 6.64326 28.2293 6.16643 28.5808 5.81482Z" fill="#B4E9FF"/>
</svg>
