<svg width="80" height="80" viewBox="0 0 80 80" fill="none" xmlns="http://www.w3.org/2000/svg">
<path d="M16.6667 26.6667V63.3334H63.3333V26.6667H53.3333V47.9167C53.3333 49.1945 52.8055 50.1534 51.75 50.7934C50.6944 51.4334 49.6111 51.4745 48.5 50.9167L40 46.6667L31.5 50.9167C30.3889 51.4722 29.3056 51.43 28.25 50.79C27.1944 50.15 26.6667 49.1934 26.6667 47.92V26.6667H16.6667ZM16.6667 70C14.8333 70 13.2644 69.3478 11.96 68.0434C10.6556 66.7389 10.0022 65.1689 10 63.3334V21.75C10 20.9722 10.1256 20.2222 10.3767 19.5C10.6278 18.7778 11.0022 18.1111 11.5 17.5L15.6667 12.4167C16.2778 11.6389 17.0411 11.0411 17.9567 10.6234C18.8722 10.2056 19.8311 9.9978 20.8333 10H59.1667C60.1667 10 61.1256 10.2089 62.0433 10.6267C62.9611 11.0445 63.7244 11.6411 64.3333 12.4167L68.5 17.5C69 18.1111 69.3756 18.7778 69.6267 19.5C69.8778 20.2222 70.0022 20.9722 70 21.75V63.3334C70 65.1667 69.3478 66.7367 68.0433 68.0434C66.7389 69.35 65.1689 70.0022 63.3333 70H16.6667ZM18 20H62L59.1667 16.6667H20.8333L18 20ZM33.3333 26.6667V42.5L40 39.1667L46.6667 42.5V26.6667H33.3333Z" fill="#072843"/>
</svg>
