<svg width="45" height="45" viewBox="0 0 45 45" fill="none" xmlns="http://www.w3.org/2000/svg">
<rect x="6.75" y="27.75" width="16.5" height="6.75" fill="#B4E9FF"/>
<circle cx="15" cy="15" r="4.5" fill="#B4E9FF"/>
<path d="M30 35.625H37.5C37.9973 35.625 38.4742 35.4275 38.8258 35.0758C39.1775 34.7242 39.375 34.2473 39.375 33.75V31.875C39.375 30.3832 38.7824 28.9524 37.7275 27.8975C36.6726 26.8426 35.2418 26.25 33.75 26.25H30M25.8075 18.75C26.567 19.5991 27.5664 20.1976 28.6734 20.4663C29.7805 20.735 30.943 20.6612 32.0073 20.2547C33.0715 19.8482 33.9872 19.1282 34.6332 18.1899C35.2792 17.2516 35.6251 16.1392 35.6251 15C35.6251 13.8608 35.2792 12.7484 34.6332 11.8101C33.9872 10.8718 33.0715 10.1518 32.0073 9.74528C30.943 9.33879 29.7805 9.26501 28.6734 9.5337C27.5664 9.80239 26.567 10.4009 25.8075 11.25M5.625 33.75V31.875C5.625 30.3832 6.21763 28.9524 7.27252 27.8975C8.32742 26.8426 9.75816 26.25 11.25 26.25H18.75C20.2418 26.25 21.6726 26.8426 22.7275 27.8975C23.7824 28.9524 24.375 30.3832 24.375 31.875V33.75C24.375 34.2473 24.1775 34.7242 23.8258 35.0758C23.4742 35.4275 22.9973 35.625 22.5 35.625H7.5C7.00272 35.625 6.52581 35.4275 6.17417 35.0758C5.82254 34.7242 5.625 34.2473 5.625 33.75ZM20.625 15C20.625 16.4918 20.0324 17.9226 18.9775 18.9775C17.9226 20.0324 16.4918 20.625 15 20.625C13.5082 20.625 12.0774 20.0324 11.0225 18.9775C9.96763 17.9226 9.375 16.4918 9.375 15C9.375 13.5082 9.96763 12.0774 11.0225 11.0225C12.0774 9.96763 13.5082 9.375 15 9.375C16.4918 9.375 17.9226 9.96763 18.9775 11.0225C20.0324 12.0774 20.625 13.5082 20.625 15Z" stroke="#B4E9FF" stroke-width="3" stroke-linecap="round"/>
</svg>
